{"title":"The Hangover Part III (2013) NEW.CAM.XViD-MORS","uid":8526424,"size":728631732,"categoryP":"video","categoryS":"movies","magnet":"?xt=urn:btih:6cc390ab9cb0983dfb8de1810d1d5402d8664ffc&amp;dn=The+Hangover+Part+III+%282013%29+NEW.CAM.XViD-MORS&amp;tr=udp%3A%2F%2Ftracker.openbittorrent.com%3A80&amp;tr=udp%3A%2F%2Fopen.demonii.com%3A1337&amp;tr=udp%3A%2F%2Ftracker.coppersurfer.tk%3A6969&amp;tr=udp%3A%2F%2Fexodus.desync.com%3A6969","seeders":2,"leechers":0,"uploader":"hiszpan2004","files":1,"time":1370040333,"description":"SCREENS:\n &lt;a href=&quot;\nhttp://s6.ifotos.pl/img/shot0318p_nrqnqew.png&quot; rel=&quot;nofollow&quot; target=&quot;_NEW&quot;&gt;\nhttp://s6.ifotos.pl/img/shot0318p_nrqnqew.png&lt;/a&gt; &lt;a href=&quot;\nhttp://s4.ifotos.pl/img/shot0307p_nrqnqea.png&quot; rel=&quot;nofollow&quot; target=&quot;_NEW&quot;&gt;\nhttp://s4.ifotos.pl/img/shot0307p_nrqnqea.png&lt;/a&gt; &lt;a href=&quot;\nhttp://s4.ifotos.pl/img/shot0310p_nrqnqex.png&quot; rel=&quot;nofollow&quot; target=&quot;_NEW&quot;&gt;\nhttp://s4.ifotos.pl/img/shot0310p_nrqnqex.png&lt;/a&gt; &lt;a href=&quot;\nhttp://s6.ifotos.pl/img/shot0316p_nrqnqep.png&quot; rel=&quot;nofollow&quot; target=&quot;_NEW&quot;&gt;\nhttp://s6.ifotos.pl/img/shot0316p_nrqnqep.png&lt;/a&gt;\n\nSAMPLE:\n\n\nFormat                                   : AVI\nFormat/Info                              : Audio Video Interleave\nFile size                                : 695 MiB\nDuration                                 : 1h 34mn\nOverall bit rate                         : 1 029 Kbps\nWriting application                      : VirtualDubMod 1.5.10.2 (build 2540/release)\nWriting library                          : VirtualDub build 30080/release\n\nVideo\nID                                       : 0\nFormat                                   : MPEG-4 Visual\nFormat profile                           : Advanced Simple@L5\nFormat settings, BVOP                    : 1\nFormat settings, QPel                    : No\nFormat settings, GMC                     : No warppoints\nFormat settings, Matrix                  : Custom\nCodec ID                                 : XVID\nCodec ID/Hint                            : XviD\nDuration                                 : 1h 34mn\nBit rate                                 : 891 Kbps\nWidth                                    : 640 pixels\nHeight                                   : 272 pixels\nDisplay aspect ratio                     : 2.35:1\nFrame rate                               : 25.857 fps\nColor space                              : YUV\nChroma subsampling                       : 4:2:0\nBit depth                                : 8 bits\nScan type                                : Progressive\nCompression mode                         : Lossy\nBits/(Pixel*Frame)                       : 0.198\nStream size                              : 602 MiB (87%)\nWriting library                          : XviD 1.2.1 (UTC 2008-12-04)\n\nAudio\nID                                       : 1\nFormat                                   : MPEG Audio\nCodec ID                                 : 55\nCodec ID/Hint                            : MP3\nDuration                                 : 1h 34mn\nBit rate                                 : 128 Kbps\nChannel(s)                               : 2 channels\nSampling rate                            : 44.1 KHz\nCompression mode                         : Lossy\nStream size                              : 86.4 MiB (12%)\nAlignment                                : Split accross interleaves\nInterleave, duration                     : 39 ms (1.00 video frame)\nInterleave, preload duration             : 500 ms\nRelease Date                             : 31-05-2013\nSOURCE                                   : V- TS.RU A- youtoube (+ sync)","torrent":{"xt":"urn:btih:6cc390ab9cb0983dfb8de1810d1d5402d8664ffc","amp;dn":"The+Hangover+Part+III+%282013%29+NEW.CAM.XViD-MORS","amp;tr":["udp%3A%2F%2Ftracker.openbittorrent.com%3A80","udp%3A%2F%2Fopen.demonii.com%3A1337","udp%3A%2F%2Ftracker.coppersurfer.tk%3A6969","udp%3A%2F%2Fexodus.desync.com%3A6969"],"infoHash":"6cc390ab9cb0983dfb8de1810d1d5402d8664ffc","infoHashBuffer":{"type":"Buffer","data":[108,195,144,171,156,176,152,61,251,141,225,129,13,29,84,2,216,102,79,252]},"announce":[],"urlList":[]}}